<svg width="363" height="86" viewBox="0 0 363 86" fill="none" xmlns="http://www.w3.org/2000/svg">
<g clip-path="url(#clip0_1425_1833)">
<path d="M102.863 35.077C101.387 36.6904 99.5643 37.9725 97.3797 38.9377C95.1952 39.9028 92.6489 40.3926 89.7265 40.3926C86.8041 40.3926 84.2 39.8884 82.0009 38.8945C79.8019 37.9005 77.979 36.5896 76.5178 34.9618C75.0566 33.334 73.9571 31.4901 73.2193 29.4157C72.4814 27.3414 72.1198 25.2094 72.1198 23.0486C72.1198 20.8878 72.4814 18.7414 73.2193 16.6526C73.9571 14.5638 75.0566 12.7055 76.5178 11.0777C77.979 9.44991 79.8019 8.13902 82.0009 7.14505C84.2 6.15108 86.7752 5.6469 89.7265 5.6469C92.6778 5.6469 95.1952 6.13668 97.3797 7.11624C99.5643 8.09581 101.387 9.4067 102.863 11.0489L98.8699 14.3765C97.8427 13.2241 96.5551 12.2878 95.0216 11.5819C93.488 10.876 91.6796 10.5159 89.6397 10.5159C86.9198 10.5159 84.634 11.1353 82.8111 12.3742C80.9882 13.6131 79.6138 15.1544 78.7024 16.9983C77.791 18.8422 77.328 20.859 77.328 23.0198C77.328 25.1806 77.791 27.1973 78.7024 29.0412C79.6138 30.8851 80.9882 32.4265 82.8111 33.6653C84.634 34.9042 86.9198 35.5236 89.6397 35.5236C91.6651 35.5236 93.4301 35.1923 94.9492 34.5152C96.4683 33.8382 97.7414 32.9451 98.7686 31.807L102.762 35.1347L102.863 35.0915V35.077Z" fill="#004646"/>
<path d="M115.232 40.0901C112.382 40.0901 109.995 39.4563 108.071 38.203C106.147 36.9497 104.715 35.3652 103.76 33.478C102.805 31.5909 102.327 29.531 102.313 27.3414C102.298 25.1517 102.776 23.1062 103.731 21.2047C104.686 19.3032 106.132 17.733 108.042 16.4797C109.952 15.2265 112.353 14.5926 115.232 14.5926C118.111 14.5926 120.513 15.2265 122.423 16.4797C124.332 17.733 125.764 19.3176 126.734 21.2047C127.703 23.0918 128.166 25.1517 128.152 27.3414C128.137 29.531 127.66 31.5765 126.705 33.478C125.764 35.3796 124.318 36.9497 122.394 38.203C120.469 39.4563 118.082 40.0901 115.218 40.0901H115.232ZM115.232 18.266C113.438 18.266 111.948 18.7126 110.762 19.6201C109.576 20.5276 108.679 21.6368 108.085 22.9765C107.492 24.3162 107.188 25.7712 107.188 27.3414C107.188 28.9115 107.478 30.3809 108.085 31.7062C108.679 33.0459 109.561 34.1551 110.762 35.0626C111.948 35.9702 113.438 36.4167 115.232 36.4167C117.026 36.4167 118.516 35.9702 119.703 35.0626C120.889 34.1551 121.786 33.0459 122.379 31.7062C122.972 30.3665 123.276 28.9115 123.276 27.3414C123.276 25.7712 122.972 24.3018 122.379 22.9765C121.786 21.6368 120.889 20.5276 119.703 19.6201C118.516 18.7126 117.026 18.266 115.232 18.266Z" fill="#004646"/>
<path d="M129.902 15.0392H134.763V17.5025C135.95 16.5373 137.252 15.8027 138.655 15.3129C140.073 14.8087 141.476 14.5638 142.865 14.535C144.254 14.5062 145.614 14.7223 146.93 15.1688C148.247 15.601 149.404 16.2492 150.402 17.0992C151.401 17.9491 152.196 19.0007 152.804 20.2683C153.412 21.5216 153.715 22.9765 153.715 24.6188C153.715 25.1373 153.715 25.5839 153.744 25.9729C153.773 26.3618 153.773 26.8516 153.773 27.471V39.5859H148.912V24.6188C148.912 23.2358 148.565 22.0978 147.856 21.2191C147.147 20.3404 146.279 19.6921 145.238 19.3176C144.196 18.9286 143.068 18.7846 141.852 18.8566C140.637 18.943 139.509 19.2744 138.467 19.865C137.425 20.4556 136.543 21.3055 135.848 22.4003C135.139 23.4951 134.792 24.8348 134.792 26.405V39.5859H129.931V15.0392H129.902Z" fill="#004646"/>
<path d="M174.447 27.1973C175.822 27.9752 176.791 28.9116 177.355 30.0208C177.919 31.13 178.122 32.2536 177.977 33.3772C177.832 34.5008 177.37 35.5668 176.588 36.5896C175.807 37.6124 174.765 38.3903 173.478 38.9377C172.61 39.2978 171.698 39.5571 170.758 39.73C169.818 39.9028 168.863 39.9893 167.893 39.9893C166.765 39.9893 165.68 39.8884 164.624 39.7012C164.363 39.6291 164.132 39.5859 163.9 39.5571C163.669 39.5283 163.452 39.4707 163.235 39.4131C162.266 39.1538 161.354 38.8224 160.486 38.4047C159.618 37.9869 158.779 37.4827 157.983 36.9065L156.826 36.0422L156.247 35.5524L158.793 32.7002L159.271 32.1672C160.038 33.0027 161.021 33.7518 162.237 34.4144C163.437 35.077 164.667 35.5524 165.94 35.8693C167.213 36.1719 168.414 36.2439 169.543 36.0854C170.686 35.927 171.583 35.4228 172.263 34.5873C172.769 33.939 172.914 33.3484 172.697 32.801C172.465 32.2536 172.017 31.735 171.322 31.2596C170.628 30.7843 169.774 30.3377 168.747 29.9343C167.72 29.531 166.664 29.142 165.564 28.7531C164.696 28.465 163.814 28.1481 162.888 27.8167C161.976 27.4854 161.137 27.0533 160.356 26.5347C159.589 26.0161 158.938 25.3966 158.403 24.6764C157.868 23.9561 157.593 23.063 157.564 21.997C157.535 21.3487 157.578 20.7437 157.708 20.1675C157.839 19.5913 158.07 19.0439 158.432 18.5253C159.43 17.0127 160.732 15.9755 162.352 15.4281C163.973 14.8807 165.651 14.5926 167.387 14.5638C169.572 14.5926 171.496 14.9528 173.16 15.6298C174.823 16.3069 176.4 17.1568 177.876 18.194L174.896 21.5216C174.158 20.9454 173.304 20.3836 172.32 19.8506C171.337 19.3176 170.309 18.9142 169.239 18.6261C168.168 18.338 167.098 18.2084 166.042 18.266C164.985 18.3092 164.016 18.6261 163.148 19.2023C162.512 19.6201 162.193 20.1675 162.193 20.8446C162.193 21.9105 163.105 22.8181 164.942 23.596C165.709 23.9129 166.505 24.2298 167.329 24.5179C168.154 24.806 168.964 25.0941 169.789 25.3822C170.613 25.6703 171.394 25.9729 172.176 26.2754C172.943 26.5779 173.651 26.9092 174.288 27.2693L174.433 27.2261L174.447 27.1973Z" fill="#004646"/>
<path d="M204.192 39.6147H199.331V37.1514C197.537 38.6352 195.541 39.5571 193.342 39.9317C191.142 40.3062 189.088 40.1621 187.164 39.5283C185.24 38.8801 183.634 37.7709 182.332 36.1719C181.03 34.5729 180.379 32.5417 180.379 30.064C180.379 29.5454 180.379 29.0988 180.35 28.7099C180.335 28.3209 180.321 27.8312 180.321 27.2117V15.0824H185.182V30.0496C185.182 31.4325 185.529 32.5705 186.238 33.4492C186.947 34.328 187.815 34.9762 188.857 35.3508C189.898 35.7397 191.027 35.8838 192.242 35.8117C193.457 35.7253 194.586 35.394 195.627 34.8034C196.669 34.2127 197.537 33.3628 198.246 32.268C198.955 31.1732 199.302 29.8335 199.302 28.2633V15.0824H204.163V39.6147H204.192Z" fill="#004646"/>
<path d="M226.457 18.2228C227.643 17.128 228.946 16.2636 230.378 15.6154C231.81 14.9672 233.532 14.6502 235.557 14.6502C236.975 14.6502 238.306 14.9528 239.55 15.5722C240.794 16.1772 241.821 17.0415 242.632 18.1363C243.138 18.8422 243.529 19.5769 243.789 20.326C244.049 21.0894 244.238 21.8673 244.368 22.674C244.498 23.4807 244.57 24.2874 244.585 25.1085C244.599 25.9296 244.614 26.7363 244.614 27.543V39.658H239.753V24.6476C239.753 23.2647 239.463 22.1266 238.885 21.2479C238.306 20.3692 237.583 19.7209 236.714 19.3176C235.846 18.9142 234.906 18.7414 233.893 18.8134C232.881 18.871 231.94 19.1735 231.072 19.6777C230.204 20.1963 229.481 20.9166 228.902 21.8529C228.323 22.7893 228.034 23.9129 228.034 25.2382V39.6291H223.173V24.6188C223.173 23.2358 222.884 22.0978 222.305 21.2191C221.726 20.3404 221.003 19.6921 220.135 19.2888C219.267 18.8854 218.327 18.7126 217.314 18.7846C216.301 18.8566 215.361 19.1447 214.493 19.6489C213.625 20.1675 212.901 20.8878 212.323 21.8241C211.744 22.7605 211.455 23.8841 211.455 25.2094V39.6003H206.594V15.0392H211.455V17.5025C212.482 16.5085 213.654 15.7595 214.97 15.2841C216.287 14.8087 217.618 14.5638 218.963 14.5638C220.598 14.5638 222.045 14.8951 223.318 15.5578C224.591 16.2204 225.618 17.0848 226.428 18.1363V18.2372L226.457 18.2228Z" fill="#004646"/>
<path d="M266.836 18.2228C268.022 17.128 269.324 16.2636 270.756 15.6154C272.188 14.9672 273.91 14.6502 275.936 14.6502C277.353 14.6502 278.684 14.9528 279.929 15.5722C281.173 16.1772 282.2 17.0415 283.01 18.1363C283.516 18.8422 283.907 19.5769 284.167 20.326C284.428 21.0894 284.616 21.8673 284.746 22.674C284.876 23.4807 284.949 24.2874 284.963 25.1085C284.978 25.9296 284.992 26.7363 284.992 27.543V39.658H280.131V24.6476C280.131 23.2647 279.842 22.1266 279.263 21.2479C278.684 20.3692 277.961 19.7209 277.093 19.3176C276.225 18.9142 275.284 18.7414 274.272 18.8134C273.259 18.871 272.319 19.1735 271.451 19.6777C270.583 20.1963 269.859 20.9166 269.281 21.8529C268.702 22.7893 268.413 23.9129 268.413 25.2382V39.6291H263.551V24.6188C263.551 23.2358 263.262 22.0978 262.683 21.2191C262.105 20.3404 261.381 19.6921 260.513 19.2888C259.645 18.8854 258.705 18.7126 257.692 18.7846C256.679 18.8566 255.739 19.1447 254.871 19.6489C254.003 20.1675 253.28 20.8878 252.701 21.8241C252.122 22.7605 251.833 23.8841 251.833 25.2094V39.6003H246.972V15.0392H251.833V17.5025C252.86 16.5085 254.032 15.7595 255.349 15.2841C256.665 14.8087 257.996 14.5638 259.341 14.5638C260.976 14.5638 262.423 14.8951 263.696 15.5578C264.969 16.2204 265.996 17.0848 266.807 18.1363V18.2372L266.836 18.2228Z" fill="#004646"/>
<path d="M307.055 15.0824H311.959V39.6147H307.055L307.098 36.143C306.071 37.4683 304.841 38.4623 303.409 39.1394C301.977 39.8164 300.487 40.1909 298.924 40.2774C297.362 40.3638 295.828 40.1189 294.295 39.5715C292.761 39.0241 291.401 38.2174 290.2 37.137C289 36.0566 288.016 34.7025 287.263 33.0603C286.511 31.4181 286.135 29.5166 286.135 27.3558C286.135 25.195 286.511 23.3079 287.263 21.6657C288.016 20.0234 289 18.6693 290.2 17.5889C291.401 16.5085 292.761 15.7018 294.295 15.1544C295.814 14.607 297.362 14.3765 298.91 14.4486C300.458 14.5206 301.962 14.9095 303.38 15.5866C304.798 16.2636 306.028 17.2576 307.055 18.5829V15.1112V15.0824ZM299.04 18.266C297.694 18.266 296.523 18.5253 295.51 19.0439C294.497 19.5625 293.658 20.2395 292.993 21.0894C292.327 21.9394 291.821 22.9189 291.473 24.0137C291.126 25.1085 290.967 26.2177 290.967 27.3414C290.967 28.465 291.141 29.5742 291.473 30.669C291.806 31.7638 292.313 32.7434 292.993 33.5933C293.658 34.4432 294.497 35.1347 295.51 35.6389C296.523 36.1574 297.694 36.4167 299.04 36.4167C300.385 36.4167 301.557 36.1574 302.57 35.6389C303.583 35.1203 304.422 34.4432 305.087 33.5933C305.753 32.7434 306.259 31.7638 306.592 30.669C306.925 29.5742 307.098 28.465 307.098 27.3414C307.098 26.2177 306.925 25.1085 306.592 24.0137C306.259 22.9189 305.753 21.9394 305.087 21.0894C304.422 20.2395 303.568 19.5481 302.57 19.0439C301.557 18.5253 300.385 18.266 299.04 18.266Z" fill="#004646"/>
<path d="M324.329 32.5129C324.329 33.4204 324.56 34.0975 325.023 34.544C325.486 34.9906 326.036 35.3219 326.672 35.5092C327.309 35.6965 327.974 35.7973 328.683 35.7685C329.378 35.7541 329.957 35.7253 330.405 35.6965V40.0469C328.322 40.0469 326.586 40.0037 325.182 39.9317C323.779 39.8452 322.665 39.5571 321.84 39.0673C321.001 38.5631 320.408 37.7708 320.032 36.676C319.656 35.5812 319.482 34.0399 319.482 32.0375V19.1879H314.332V15.0392H319.482V8.57118H324.387V15.0392H330.448V19.1879H324.387L324.343 32.5129H324.329Z" fill="#004646"/>
<path d="M344.381 36.3735C345.957 36.3735 347.288 36.0278 348.402 35.3363C349.516 34.6449 350.384 33.7518 351.021 32.6569L354.58 35.4084C353.524 36.7913 352.135 37.9149 350.442 38.7648C348.735 39.6147 346.724 40.0469 344.381 40.0469C342.427 40.0469 340.691 39.7444 339.187 39.1538C337.682 38.5631 336.395 37.7564 335.31 36.7337C334.224 35.7109 333.385 34.5585 332.763 33.2332C332.141 31.9079 331.722 30.5394 331.534 29.1276C331.374 27.9032 331.374 26.6787 331.534 25.4543C331.722 24.0425 332.141 22.674 332.763 21.3487C333.385 20.0234 334.239 18.8566 335.31 17.8482C336.38 16.8399 337.668 16.0332 339.187 15.4281C340.706 14.8231 342.427 14.535 344.381 14.535C346.334 14.535 348.07 14.8375 349.574 15.4281C351.079 16.0188 352.367 16.8255 353.452 17.8482C354.522 18.8566 355.376 20.0234 355.998 21.3487C356.62 22.674 357.039 24.0425 357.228 25.4543C357.387 26.6787 357.387 27.9032 357.228 29.1276H336.539C336.698 30.0928 336.973 31.0147 337.378 31.8791C337.783 32.7434 338.304 33.5213 338.97 34.1983C339.621 34.8754 340.416 35.4084 341.328 35.7973C342.239 36.1863 343.281 36.3735 344.438 36.3735H344.395H344.381ZM352.323 25.4687C352.164 24.5035 351.889 23.5816 351.484 22.7172C351.079 21.8529 350.558 21.075 349.893 20.398C349.242 19.7209 348.446 19.1879 347.534 18.799C346.623 18.41 345.581 18.2228 344.424 18.2228C343.267 18.2228 342.239 18.41 341.313 18.799C340.402 19.1879 339.606 19.7209 338.955 20.398C338.29 21.075 337.769 21.8529 337.364 22.7172C336.959 23.5816 336.684 24.5035 336.525 25.4687H352.309H352.323Z" fill="#004646"/>
<path d="M102.617 46.2556V51.139H89.7698V80.065H84.9088V51.139H72.0618V46.2556H102.617Z" fill="#004646"/>
<path d="M103.109 55.1437H107.97V57.607C108.476 57.0596 109.098 56.5843 109.793 56.1809C110.501 55.7776 111.254 55.4606 112.049 55.2157C112.845 54.9709 113.67 54.8124 114.509 54.7116C115.348 54.6107 116.158 54.5963 116.968 54.6683V59.3933C115.174 59.2348 113.699 59.3357 112.541 59.6814C111.384 60.0415 110.473 60.6033 109.793 61.3668C109.113 62.1447 108.65 63.0811 108.375 64.1615C108.1 65.2563 107.97 66.4807 107.97 67.8348V79.6616H103.109V55.1293V55.1437Z" fill="#004646"/>
<path d="M138.366 55.1869H143.27V79.7193H138.366L138.409 76.2476C137.382 77.5729 136.152 78.5668 134.72 79.2439C133.288 79.9209 131.797 80.2955 130.235 80.3819C128.672 80.4683 127.139 80.2234 125.605 79.676C124.072 79.1286 122.712 78.3219 121.511 77.2415C120.31 76.1611 119.327 74.807 118.574 73.1648C117.822 71.5226 117.446 69.6211 117.446 67.4603C117.446 65.2995 117.822 63.4124 118.574 61.7702C119.327 60.128 120.31 58.7739 121.511 57.6935C122.712 56.6131 124.072 55.8064 125.605 55.259C127.124 54.7116 128.672 54.4811 130.22 54.5531C131.768 54.6251 133.273 55.0141 134.691 55.6911C136.109 56.3682 137.338 57.3621 138.366 58.6874V55.2157V55.1869ZM130.351 58.3705C129.005 58.3705 127.833 58.6298 126.821 59.1484C125.808 59.667 124.969 60.344 124.303 61.194C123.638 62.0439 123.131 63.0234 122.784 64.1182C122.437 65.2131 122.278 66.3223 122.278 67.4459C122.278 68.5695 122.452 69.6787 122.784 70.7735C123.117 71.8683 123.623 72.8479 124.303 73.6978C124.969 74.5477 125.808 75.2392 126.821 75.7434C127.833 76.262 129.005 76.5213 130.351 76.5213C131.696 76.5213 132.868 76.262 133.881 75.7434C134.893 75.2248 135.733 74.5477 136.398 73.6978C137.064 72.8479 137.57 71.8683 137.903 70.7735C138.235 69.6787 138.409 68.5695 138.409 67.4459C138.409 66.3223 138.235 65.2131 137.903 64.1182C137.57 63.0234 137.064 62.0439 136.398 61.194C135.733 60.344 134.879 59.6526 133.881 59.1484C132.868 58.6298 131.696 58.3705 130.351 58.3705Z" fill="#004646"/>
<path d="M166.606 45.9243H171.51V79.7193H166.606V76.2476C165.579 77.5729 164.349 78.5668 162.931 79.2439C161.513 79.9209 160.009 80.2955 158.461 80.3819C156.913 80.4683 155.365 80.2234 153.846 79.676C152.327 79.1286 150.952 78.3219 149.751 77.2415C148.551 76.1611 147.567 74.807 146.814 73.1648C146.062 71.5226 145.686 69.6211 145.686 67.4603C145.686 65.2995 146.062 63.4124 146.814 61.7702C147.567 60.128 148.551 58.7739 149.751 57.6935C150.952 56.6131 152.327 55.8064 153.846 55.259C155.365 54.7116 156.913 54.4811 158.475 54.5531C160.038 54.6251 161.528 55.0141 162.96 55.6911C164.392 56.3682 165.622 57.3621 166.649 58.6874L166.606 45.9387V45.9243ZM158.591 58.3849C157.245 58.3849 156.074 58.6442 155.061 59.1628C154.048 59.6814 153.209 60.3585 152.544 61.2084C151.878 62.0583 151.372 63.0379 151.024 64.1327C150.677 65.2275 150.518 66.3367 150.518 67.4603C150.518 68.5839 150.692 69.6931 151.024 70.7879C151.357 71.8827 151.864 72.8623 152.544 73.7122C153.209 74.5621 154.048 75.2536 155.061 75.7578C156.074 76.2764 157.245 76.5357 158.591 76.5357C159.936 76.5357 161.108 76.2764 162.121 75.7578C163.134 75.2392 163.973 74.5621 164.638 73.7122C165.304 72.8623 165.81 71.8827 166.143 70.7879C166.476 69.6931 166.649 68.5839 166.649 67.4603C166.649 66.3367 166.476 65.2275 166.143 64.1327C165.81 63.0379 165.304 62.0583 164.638 61.2084C163.973 60.3585 163.119 59.667 162.121 59.1628C161.108 58.6442 159.936 58.3849 158.591 58.3849Z" fill="#004646"/>
<path d="M186.715 76.4781C188.292 76.4781 189.623 76.1323 190.737 75.4409C191.851 74.7494 192.719 73.8563 193.356 72.7615L196.915 75.5129C195.859 76.8958 194.47 78.0194 192.777 78.8693C191.07 79.7193 189.059 80.1514 186.715 80.1514C184.762 80.1514 183.026 79.8489 181.522 79.2583C180.017 78.6677 178.729 77.861 177.644 76.8382C176.559 75.8154 175.72 74.663 175.098 73.3377C174.476 72.0124 174.056 70.6439 173.868 69.2322C173.709 68.0077 173.709 66.7832 173.868 65.5588C174.056 64.1471 174.476 62.7786 175.098 61.4533C175.72 60.128 176.574 58.9611 177.644 57.9528C178.715 56.9444 180.003 56.1377 181.522 55.5327C183.041 54.9276 184.762 54.6395 186.715 54.6395C188.668 54.6395 190.405 54.942 191.909 55.5327C193.414 56.1233 194.701 56.93 195.786 57.9528C196.857 58.9611 197.711 60.128 198.333 61.4533C198.955 62.7786 199.374 64.1471 199.562 65.5588C199.722 66.7832 199.722 68.0077 199.562 69.2322H178.874C179.033 70.1973 179.308 71.1193 179.713 71.9836C180.118 72.8479 180.639 73.6258 181.305 74.3028C181.956 74.9799 182.751 75.5129 183.663 75.9018C184.574 76.2908 185.616 76.4781 186.773 76.4781H186.73H186.715ZM194.658 65.5732C194.499 64.608 194.224 63.6861 193.819 62.8218C193.414 61.9574 192.893 61.1796 192.227 60.5025C191.576 59.8255 190.781 59.2925 189.869 58.9035C188.958 58.5146 187.916 58.3273 186.759 58.3273C185.601 58.3273 184.574 58.5146 183.648 58.9035C182.737 59.2925 181.941 59.8255 181.29 60.5025C180.625 61.1796 180.104 61.9574 179.699 62.8218C179.294 63.6861 179.019 64.608 178.86 65.5732H194.643H194.658Z" fill="#004646"/>
<path d="M202.123 55.1437H206.984V57.607C207.491 57.0596 208.113 56.5843 208.807 56.1809C209.516 55.7776 210.268 55.4606 211.064 55.2157C211.86 54.9709 212.684 54.8124 213.523 54.7116C214.363 54.6107 215.173 54.5963 215.983 54.6683V59.3933C214.189 59.2348 212.713 59.3357 211.556 59.6814C210.398 60.0415 209.487 60.6033 208.807 61.3668C208.127 62.1447 207.664 63.0811 207.389 64.1615C207.114 65.2563 206.984 66.4807 206.984 67.8348V79.6616H202.123V55.1293V55.1437Z" fill="#004646"/>
<path d="M234.11 67.3162C235.485 68.0941 236.454 69.0305 237.018 70.1397C237.583 71.2489 237.785 72.3725 237.64 73.4961C237.496 74.6198 237.033 75.6858 236.252 76.7085C235.47 77.7313 234.429 78.5092 233.141 79.0566C232.273 79.4167 231.362 79.676 230.421 79.8489C229.481 80.0218 228.526 80.1082 227.557 80.1082C226.428 80.1082 225.343 80.0074 224.287 79.8201C224.027 79.7481 223.795 79.7049 223.564 79.676C223.332 79.6472 223.115 79.5896 222.898 79.532C221.929 79.2727 221.017 78.9414 220.149 78.5236C219.281 78.1059 218.442 77.6017 217.647 77.0255L216.489 76.1611L215.911 75.6713L218.457 72.8191L218.934 72.2861C219.701 73.1216 220.685 73.8707 221.9 74.5333C223.101 75.196 224.331 75.6714 225.604 75.9883C226.877 76.2908 228.078 76.3628 229.206 76.2044C230.349 76.0459 231.246 75.5417 231.926 74.7062C232.432 74.058 232.577 73.4673 232.36 72.9199C232.128 72.3725 231.68 71.8539 230.985 71.3786C230.291 70.9032 229.437 70.4566 228.41 70.0533C227.383 69.6499 226.327 69.261 225.227 68.872C224.359 68.5839 223.477 68.267 222.551 67.9357C221.64 67.6043 220.8 67.1722 220.019 66.6536C219.252 66.135 218.601 65.5156 218.066 64.7953C217.531 64.075 217.256 63.1819 217.227 62.1159C217.198 61.4677 217.242 60.8626 217.372 60.2864C217.502 59.7102 217.733 59.1628 218.095 58.6442C219.093 57.1317 220.395 56.0945 222.016 55.5471C223.636 54.9997 225.314 54.7115 227.05 54.6827C229.235 54.7115 231.159 55.0717 232.823 55.7487C234.487 56.4258 236.064 57.2757 237.539 58.3129L234.559 61.6405C233.821 61.0643 232.968 60.5025 231.984 59.9695C231 59.4365 229.973 59.0332 228.902 58.7451C227.832 58.4569 226.761 58.3273 225.705 58.3849C224.649 58.4281 223.679 58.7451 222.811 59.3213C222.175 59.739 221.857 60.2864 221.857 60.9635C221.857 62.0295 222.768 62.937 224.605 63.7149C225.372 64.0318 226.168 64.3487 226.992 64.6368C227.817 64.925 228.627 65.2131 229.452 65.5012C230.277 65.7893 231.058 66.0918 231.839 66.3943C232.606 66.6968 233.315 67.0281 233.951 67.3883L234.096 67.3451L234.11 67.3162Z" fill="#004646"/>
<path d="M41.4778 74.1876C33.9258 74.1876 27.8206 68.0941 27.8206 60.589V22.991C27.8206 21.4352 26.5619 20.1819 24.9995 20.1819C23.437 20.1819 22.1783 21.4352 22.1783 22.991V60.5745C22.1783 71.1913 30.8153 79.7913 41.4778 79.7913C52.1402 79.7913 60.7772 71.1913 60.7772 60.5745V49.7849C60.7772 48.2292 59.5185 46.9759 57.9561 46.9759C56.3936 46.9759 55.1349 48.2292 55.1349 49.7849V60.5745C55.1349 68.0941 49.0153 74.1732 41.4778 74.1732V74.1876Z" fill="#004646"/>
<path d="M24.9416 10.9337C32.4936 10.9337 38.5988 17.0271 38.5988 24.5323V62.1159C38.5988 63.6717 39.8575 64.925 41.4199 64.925C42.9824 64.925 44.2411 63.6717 44.2411 62.1159V24.5323C44.2411 13.9156 35.6041 5.31558 24.9416 5.31558C14.2792 5.31558 5.64221 13.9156 5.64221 24.5323V35.3219C5.64221 36.8777 6.90087 38.131 8.46334 38.131C10.0258 38.131 11.2845 36.8777 11.2845 35.3219V24.5323C11.2845 17.0127 17.4042 10.9337 24.9416 10.9337Z" fill="#009056"/>
</g>
<defs>
<clipPath id="clip0_1425_1833">
<rect width="363" height="86" fill="white"/>
</clipPath>
</defs>
</svg>
