<svg width="33" height="32" viewBox="0 0 33 32" fill="none" xmlns="http://www.w3.org/2000/svg">
<g clip-path="url(#clip0_196_10034)">
<path d="M20.2115 12.6317C19.5441 12.1202 18.7357 11.8262 17.8957 11.7896L17.7715 11.9096C19.1736 12.3096 19.8536 12.9348 19.8536 12.9348C18.89 12.4504 17.8345 12.1761 16.757 12.13C15.6795 12.0839 14.6045 12.2671 13.6031 12.6674C13.3083 12.7938 13.1294 12.878 13.1083 12.8885C13.1504 12.8485 13.8304 12.2127 15.2788 11.8674L15.1862 11.7896C14.3327 11.8196 13.5096 12.1138 12.8304 12.6317C12.0583 14.0728 11.6398 15.6769 11.6094 17.3117C11.6094 17.3117 12.2894 18.4738 14.1441 18.5264C14.1441 18.5264 14.4157 18.1706 14.6894 17.859C13.6367 17.5453 13.241 16.9222 13.241 16.9222L13.5883 17.099C14.6094 17.5201 15.6936 18.0359 17.6115 17.7306C18.028 17.6523 18.4357 17.5324 18.8283 17.3727C19.1531 17.2271 19.4693 17.0633 19.7757 16.8822C19.7757 16.8822 19.3694 17.5138 18.281 17.8169C18.5062 18.1053 18.8157 18.4696 18.8157 18.4696C20.6746 18.4296 21.3967 17.2696 21.4367 17.3201C21.4076 15.682 20.9875 14.0746 20.2115 12.6317ZM14.961 16.5138C14.7248 16.5138 14.4983 16.4199 14.3313 16.2529C14.1643 16.0859 14.0704 15.8594 14.0704 15.6232C14.0704 15.3871 14.1643 15.1605 14.3313 14.9935C14.4983 14.8265 14.7248 14.7327 14.961 14.7327C15.1899 14.7438 15.4058 14.8426 15.5639 15.0086C15.7221 15.1746 15.8102 15.395 15.8102 15.6243C15.8102 15.8535 15.7221 16.074 15.5639 16.24C15.4058 16.4059 15.1899 16.5047 14.961 16.5159V16.5138ZM18.0388 16.5138C17.8027 16.5138 17.5762 16.4199 17.4092 16.2529C17.2421 16.0859 17.1483 15.8594 17.1483 15.6232C17.1483 15.3871 17.2421 15.1605 17.4092 14.9935C17.5762 14.8265 17.8027 14.7327 18.0388 14.7327C18.2678 14.7438 18.4837 14.8426 18.6418 15.0086C18.7999 15.1746 18.8881 15.395 18.8881 15.6243C18.8881 15.8535 18.7999 16.074 18.6418 16.24C18.4837 16.4059 18.2678 16.5047 18.0388 16.5159V16.5138Z" fill="#283D3D"/>
<path d="M16.5 0C13.3355 0 10.2421 0.938384 7.61088 2.69649C4.9797 4.45459 2.92894 6.95345 1.71793 9.87707C0.506933 12.8007 0.190079 16.0177 0.807443 19.1214C1.42481 22.2251 2.94866 25.0761 5.1863 27.3137C7.42394 29.5513 10.2749 31.0752 13.3786 31.6926C16.4823 32.3099 19.6993 31.9931 22.6229 30.7821C25.5466 29.5711 28.0454 27.5203 29.8035 24.8891C31.5616 22.2579 32.5 19.1645 32.5 16C32.5 11.7565 30.8143 7.68687 27.8137 4.68629C24.8131 1.68571 20.7435 0 16.5 0ZM23.8326 24L22.02 22.4842L21.0242 21.5916L19.9379 20.6589L20.3926 22.1326H10.8874C10.6655 22.1394 10.4445 22.1018 10.2374 22.0221C10.0302 21.9424 9.84099 21.8222 9.68083 21.6685C9.52067 21.5148 9.39277 21.3307 9.30461 21.127C9.21645 20.9233 9.16979 20.7041 9.16738 20.4821V9.65263C9.18005 9.20626 9.36774 8.78278 9.68993 8.47359C10.0121 8.1644 10.443 7.99429 10.8895 8H22.0684C22.5166 8.00003 22.9481 8.17027 23.2756 8.47627C23.6031 8.78228 23.8022 9.20124 23.8326 9.64842V24Z" fill="#283D3D"/>
</g>
<defs>
<clipPath id="clip0_196_10034">
<rect width="32" height="32" fill="white" transform="translate(0.5)"/>
</clipPath>
</defs>
</svg>
