<svg width="33" height="32" viewBox="0 0 33 32" fill="none" xmlns="http://www.w3.org/2000/svg">
<g clip-path="url(#clip0_196_10017)">
<path d="M32.5 16.0358C32.5 24.2828 26.3286 31.0407 18.4429 31.957V19.5866H22.2143L22.7857 15.234H18.5571V12.5996C18.5571 11.3396 18.9 10.5378 20.7286 10.5378H23.0143V6.52886C21.8714 6.41432 20.8429 6.41432 19.7 6.41432C16.3857 6.41432 14.1 8.47606 14.1 12.1414V15.3485H10.3286V19.7011H14.1V31.957C6.32857 30.6971 0.5 24.0537 0.5 16.0358C0.5 7.21611 7.7 0 16.5 0C25.3 0 32.5 7.21611 32.5 16.0358Z" fill="#283D3D"/>
</g>
<defs>
<clipPath id="clip0_196_10017">
<rect width="32" height="32" fill="white" transform="translate(0.5)"/>
</clipPath>
</defs>
</svg>
