<svg width="33" height="32" viewBox="0 0 33 32" fill="none" xmlns="http://www.w3.org/2000/svg">
<g clip-path="url(#clip0_196_10023)">
<path d="M16.5 19.2812C18.3122 19.2812 19.7812 17.8122 19.7812 16C19.7812 14.1878 18.3122 12.7188 16.5 12.7188C14.6878 12.7188 13.2188 14.1878 13.2188 16C13.2188 17.8122 14.6878 19.2812 16.5 19.2812Z" fill="#283D3D"/>
<path d="M16.5 0.375C7.87056 0.375 0.875 7.37056 0.875 16C0.875 24.6294 7.87056 31.625 16.5 31.625C25.1294 31.625 32.125 24.6294 32.125 16C32.125 7.37056 25.1294 0.375 16.5 0.375ZM26.1536 19.9713C26.0786 21.4568 25.6612 22.9216 24.5786 23.9927C23.4856 25.0739 22.0138 25.4768 20.5139 25.5511H12.4861C10.9861 25.4768 9.5145 25.0742 8.42144 23.9927C7.33881 22.9216 6.92144 21.4568 6.84644 19.9713V12.0288C6.92144 10.5433 7.33887 9.07837 8.42144 8.00725C9.5145 6.926 10.9863 6.52312 12.4861 6.44894H20.5139C22.0139 6.52312 23.4855 6.92581 24.5786 8.00725C25.6612 9.07837 26.0786 10.5433 26.1536 12.0288L26.1536 19.9713Z" fill="#283D3D"/>
<path d="M20.4124 8.25848C18.457 8.20486 14.5433 8.20486 12.5879 8.25848C11.5704 8.28642 10.4168 8.53973 9.69179 9.31411C8.93841 10.119 8.65373 11.0915 8.62485 12.1795C8.5741 14.089 8.62485 19.8202 8.62485 19.8202C8.65791 20.908 8.93841 21.8807 9.69179 22.6856C10.4168 23.4602 11.5704 23.7133 12.5879 23.7412C14.5433 23.7949 18.457 23.7949 20.4124 23.7412C21.43 23.7133 22.5835 23.46 23.3085 22.6856C24.0619 21.8807 24.3466 20.9082 24.3755 19.8202V12.1795C24.3466 11.0915 24.0619 10.119 23.3085 9.31411C22.5833 8.53948 21.4297 8.28642 20.4124 8.25848ZM16.4999 21.0858C15.494 21.0858 14.5107 20.7875 13.6743 20.2287C12.8379 19.6698 12.1861 18.8755 11.8011 17.9462C11.4162 17.0168 11.3155 15.9942 11.5117 15.0076C11.7079 14.0211 12.1923 13.1148 12.9036 12.4036C13.6149 11.6923 14.5211 11.2079 15.5077 11.0116C16.4943 10.8154 17.5169 10.9161 18.4462 11.3011C19.3756 11.686 20.1699 12.3379 20.7287 13.1743C21.2876 14.0106 21.5859 14.994 21.5859 15.9999C21.5859 17.3487 21.05 18.6424 20.0962 19.5962C19.1424 20.55 17.8488 21.0858 16.4999 21.0858ZM21.6075 11.9637C21.4063 11.9637 21.2097 11.904 21.0424 11.7922C20.8752 11.6804 20.7448 11.5215 20.6679 11.3356C20.5909 11.1498 20.5708 10.9452 20.6101 10.7479C20.6494 10.5506 20.7463 10.3694 20.8886 10.2272C21.0308 10.085 21.2121 9.98811 21.4094 9.94888C21.6067 9.90965 21.8112 9.92981 21.997 10.0068C22.1829 10.0838 22.3417 10.2142 22.4535 10.3815C22.5653 10.5487 22.6249 10.7454 22.6249 10.9465C22.6249 11.0801 22.5986 11.2124 22.5475 11.3359C22.4963 11.4593 22.4214 11.5714 22.3269 11.6659C22.2324 11.7603 22.1203 11.8353 21.9968 11.8864C21.8734 11.9375 21.7411 11.9638 21.6075 11.9637Z" fill="#283D3D"/>
</g>
<defs>
<clipPath id="clip0_196_10023">
<rect width="32" height="32" fill="white" transform="translate(0.5)"/>
</clipPath>
</defs>
</svg>
