<svg width="33" height="32" viewBox="0 0 33 32" fill="none" xmlns="http://www.w3.org/2000/svg">
<g clip-path="url(#clip0_196_10019)">
<path d="M16.5 0C13.3355 0 10.2421 0.938384 7.61088 2.69649C4.9797 4.45459 2.92894 6.95345 1.71793 9.87707C0.506933 12.8007 0.190079 16.0177 0.807443 19.1214C1.42481 22.2251 2.94866 25.0761 5.1863 27.3137C7.42394 29.5513 10.2749 31.0752 13.3786 31.6926C16.4823 32.3099 19.6993 31.9931 22.6229 30.7821C25.5466 29.5711 28.0454 27.5203 29.8035 24.8891C31.5616 22.2579 32.5 19.1645 32.5 16C32.5 11.7565 30.8143 7.68687 27.8137 4.68629C24.8131 1.68571 20.7435 0 16.5 0ZM12.4284 23.459C12.4284 23.6024 12.3714 23.7401 12.27 23.8415C12.1685 23.943 12.0309 24 11.8874 24H9.58843C9.5173 24.0003 9.44682 23.9865 9.38105 23.9594C9.31528 23.9323 9.25552 23.8924 9.20523 23.8422C9.15493 23.7919 9.11509 23.7321 9.08799 23.6663C9.0609 23.6006 9.0471 23.5301 9.04738 23.459V13.8189C9.04738 13.6755 9.10438 13.5378 9.20585 13.4364C9.30731 13.3349 9.44493 13.2779 9.58843 13.2779H11.8874C12.0309 13.2779 12.1685 13.3349 12.27 13.4364C12.3714 13.5378 12.4284 13.6755 12.4284 13.8189V23.459ZM10.7442 12.3705C10.3117 12.3722 9.88851 12.2455 9.52808 12.0065C9.16766 11.7675 8.88626 11.4269 8.71951 11.0279C8.55276 10.6288 8.50816 10.1893 8.59135 9.7649C8.67455 9.3405 8.88179 8.95034 9.18686 8.6438C9.49193 8.33726 9.88109 8.12813 10.3051 8.04288C10.7291 7.95764 11.1688 8.00012 11.5686 8.16495C11.9685 8.32977 12.3104 8.60953 12.5512 8.9688C12.7919 9.32806 12.9206 9.75069 12.9211 10.1832C12.9213 10.4701 12.8651 10.7543 12.7555 11.0196C12.646 11.2848 12.4852 11.5259 12.2825 11.729C12.0798 11.9321 11.839 12.0933 11.574 12.2034C11.309 12.3135 11.0249 12.3703 10.7379 12.3705H10.7442ZM24.4537 23.5032C24.4537 23.6349 24.4013 23.7613 24.3082 23.8545C24.215 23.9477 24.0886 24 23.9568 24H21.4832C21.3514 24 21.225 23.9477 21.1318 23.8545C21.0387 23.7613 20.9863 23.6349 20.9863 23.5032V18.9811C20.9863 18.3053 21.1821 16.0337 19.2221 16.0337C17.7021 16.0337 17.3926 17.5958 17.3274 18.2968V23.5137C17.3246 23.6429 17.2717 23.766 17.1797 23.8568C17.0877 23.9476 16.964 23.9989 16.8347 24H14.4474C14.3821 24.0003 14.3173 23.9876 14.2569 23.9627C14.1965 23.9379 14.1416 23.9013 14.0954 23.8551C14.0492 23.8089 14.0127 23.754 13.9878 23.6936C13.9629 23.6332 13.9503 23.5685 13.9505 23.5032V13.7768C13.9503 13.7114 13.9629 13.6466 13.9877 13.5861C14.0126 13.5255 14.0491 13.4705 14.0953 13.4242C14.1415 13.3778 14.1963 13.341 14.2568 13.3159C14.3172 13.2908 14.382 13.2779 14.4474 13.2779H16.8347C16.901 13.2768 16.9668 13.2889 17.0283 13.3134C17.0898 13.338 17.1458 13.3746 17.193 13.421C17.2402 13.4675 17.2777 13.5228 17.3033 13.5839C17.3289 13.645 17.3421 13.7106 17.3421 13.7768V14.6189C17.9063 13.7768 18.7442 13.1179 20.5274 13.1179C24.4811 13.1179 24.4579 16.8105 24.4579 18.8379L24.4537 23.5032Z" fill="#283D3D"/>
</g>
<defs>
<clipPath id="clip0_196_10019">
<rect width="32" height="32" fill="white" transform="translate(0.5)"/>
</clipPath>
</defs>
</svg>
