<svg width="52" height="36" viewBox="0 0 52 36" fill="none" xmlns="http://www.w3.org/2000/svg">
<path fill-rule="evenodd" clip-rule="evenodd" d="M11.7778 16.3609C11.7778 13.2591 14.2924 10.7445 17.3943 10.7445H21.199C21.9994 10.7445 22.6484 11.3934 22.6484 12.1939C22.6484 12.9944 21.9994 13.6433 21.199 13.6433H17.3943C15.8934 13.6433 14.6766 14.86 14.6766 16.3609C14.6766 17.8618 15.8934 19.0786 17.3943 19.0786H34.6059C35.4064 19.0786 36.0553 19.7275 36.0553 20.528C36.0553 21.3285 35.4064 21.9774 34.6059 21.9774H17.3943C14.2924 21.9774 11.7778 19.4628 11.7778 16.3609Z" fill="#059056"/>
<path fill-rule="evenodd" clip-rule="evenodd" d="M40.2222 20.528C40.2222 23.6298 37.7076 26.1444 34.6057 26.1444H30.801C30.0006 26.1444 29.3516 25.4955 29.3516 24.695C29.3516 23.8945 30.0006 23.2456 30.801 23.2456H34.6057C36.1066 23.2456 37.3234 22.0289 37.3234 20.528C37.3234 19.0271 36.1066 17.8103 34.6057 17.8103H17.3941C16.5936 17.8103 15.9447 17.1614 15.9447 16.3609C15.9447 15.5605 16.5936 14.9115 17.3941 14.9115H34.6057C37.7076 14.9115 40.2222 17.4261 40.2222 20.528Z" fill="#004645"/>
<rect x="0.5" y="0.5" width="51" height="35" rx="17.5" stroke="#088450"/>
</svg>
