<svg width="33" height="32" viewBox="0 0 33 32" fill="none" xmlns="http://www.w3.org/2000/svg">
<g clip-path="url(#clip0_196_10032)">
<path d="M16.5 0C7.66089 0 0.5 7.16089 0.5 16C0.5 24.8391 7.66089 32 16.5 32C25.3391 32 32.5 24.8391 32.5 16C32.5 7.16089 25.3391 0 16.5 0ZM23.6324 12.3093C23.6324 12.3093 24.1516 17.0453 20.4111 20.5938C15.1702 25.5644 7.61111 21.696 7.61111 21.696C11.2449 21.7387 12.7809 20.2098 12.7809 20.2098C9.79422 19.6978 9.49556 17.5644 9.49556 17.5644C10.0076 17.8844 11.124 17.5644 11.124 17.5644C7.796 16.0356 8.31511 14.0231 8.31511 14.0231C9.28222 14.5636 10.0076 14.3644 10.0076 14.3644C7.41911 12.1173 8.884 9.73511 8.884 9.73511C13.428 14.0587 16.3507 13.1698 16.3507 13.1698C16.1444 10.1262 17.9436 8.94578 19.8849 8.88178C21.5204 8.82489 22.4591 9.96267 22.4591 9.96267C23.7178 10.0693 24.8982 9.23022 24.8982 9.23022C24.7916 10.2471 23.412 11.1076 23.412 11.1076C24.1302 11.1716 25.3818 10.7804 25.3818 10.7804C24.7347 11.968 23.6324 12.3093 23.6324 12.3093Z" fill="#283D3D"/>
</g>
<defs>
<clipPath id="clip0_196_10032">
<rect width="32" height="32" fill="white" transform="translate(0.5)"/>
</clipPath>
</defs>
</svg>
