<svg width="33" height="32" viewBox="0 0 33 32" fill="none" xmlns="http://www.w3.org/2000/svg">
<g clip-path="url(#clip0_196_10027)">
<path d="M20.9214 11.5788L20.8898 11.5472C19.8433 10.5063 18.4604 9.87197 16.9888 9.75786C15.5173 9.64375 14.0531 10.0573 12.8587 10.9244C11.6643 11.7916 10.8176 13.0556 10.4703 14.4902C10.123 15.9248 10.2979 17.4361 10.9635 18.7535L11.2372 19.2925L10.7256 21.7725V21.804L13.1824 21.2209L13.7424 21.4988C14.9079 22.0773 16.2256 22.2755 17.5098 22.0655C18.7939 21.8555 19.9798 21.2479 20.9003 20.3282C22.0561 19.1669 22.7066 17.5963 22.7106 15.9578C22.7145 14.3194 22.0715 12.7457 20.9214 11.5788ZM20.6729 18.5261C20.3719 18.9998 19.894 19.5788 19.2982 19.724C18.2456 19.9788 16.6435 19.724 14.6372 17.8693L14.6119 17.8461C12.8666 16.2167 12.4035 14.8588 12.5066 13.783C12.5677 13.1725 13.0772 12.6209 13.5066 12.2588C13.5747 12.2008 13.6555 12.1596 13.7425 12.1385C13.8295 12.1175 13.9201 12.1172 14.0072 12.1377C14.0943 12.1582 14.1754 12.1989 14.2438 12.2565C14.3123 12.3141 14.3663 12.387 14.4014 12.4693L15.0477 13.943C15.0899 14.037 15.1057 14.1408 15.0935 14.2431C15.0812 14.3455 15.0414 14.4426 14.9782 14.524L14.6498 14.9451C14.5815 15.0325 14.5409 15.1382 14.533 15.2489C14.5251 15.3595 14.5504 15.4699 14.6056 15.5661C14.9177 16.0252 15.291 16.4395 15.715 16.7977C16.1704 17.2383 16.6882 17.6094 17.2519 17.8988C17.3546 17.9404 17.4673 17.9505 17.5757 17.9276C17.6842 17.9047 17.7832 17.85 17.8603 17.7703L18.2372 17.3893C18.3075 17.3087 18.399 17.2494 18.5013 17.2181C18.6037 17.1869 18.7127 17.1849 18.8161 17.2125L20.3529 17.6546C20.4384 17.6796 20.5168 17.7241 20.5821 17.7846C20.6474 17.8451 20.6978 17.9199 20.7292 18.0032C20.7606 18.0865 20.7723 18.1759 20.7633 18.2645C20.7542 18.353 20.7248 18.4383 20.6772 18.5135L20.6729 18.5261Z" fill="#283D3D"/>
<path d="M16.5 0C13.3355 0 10.2421 0.938384 7.61088 2.69649C4.9797 4.45459 2.92894 6.95345 1.71793 9.87707C0.506933 12.8007 0.190079 16.0177 0.807443 19.1214C1.42481 22.2251 2.94866 25.0761 5.1863 27.3137C7.42394 29.5513 10.2749 31.0752 13.3786 31.6926C16.4823 32.3099 19.6993 31.9931 22.6229 30.7821C25.5466 29.5711 28.0454 27.5203 29.8035 24.8891C31.5616 22.2579 32.5 19.1645 32.5 16C32.5 11.7565 30.8143 7.68687 27.8137 4.68629C24.8131 1.68571 20.7435 0 16.5 0ZM24.4305 16.1874C24.3873 17.5162 24.0111 18.8128 23.3363 19.9584C22.6616 21.104 21.7099 22.0617 20.5687 22.7438C19.4275 23.4259 18.1333 23.8105 16.8048 23.8622C15.4763 23.914 14.1561 23.6312 12.9653 23.04L8.96527 23.9916C8.90479 24.0055 8.84155 24.0008 8.78373 23.9783C8.72592 23.9558 8.67621 23.9164 8.64106 23.8653C8.61703 23.8311 8.60033 23.7923 8.592 23.7514C8.58366 23.7104 8.58388 23.6682 8.59264 23.6274L9.43474 19.5389C8.88429 18.4604 8.58793 17.2702 8.56834 16.0594C8.54876 14.8486 8.80647 13.6495 9.32176 12.5537C9.83704 11.4578 10.5962 10.4945 11.5412 9.73728C12.4862 8.98009 13.5919 8.44917 14.7737 8.18515C15.9554 7.92113 17.182 7.93102 18.3593 8.21406C19.5367 8.49711 20.6337 9.0458 21.5663 9.81813C22.499 10.5905 23.2425 11.566 23.7401 12.6699C24.2376 13.7739 24.476 14.9771 24.4368 16.1874H24.4305Z" fill="#283D3D"/>
</g>
<defs>
<clipPath id="clip0_196_10027">
<rect width="32" height="32" fill="white" transform="translate(0.5)"/>
</clipPath>
</defs>
</svg>
